. 
 
 
http://www.torrentday.com :  Your Key To The Scene.


Now TvTeam with [No-RAR] Releases.



(((((((((((((= Enjoy No RAR releases =))))))))))))))))))))



...................................NFO:....................................

.*******************************************************************************
                    Kick-Ass.2010.DVDRip.AC3.X264-BARC0DE
*******************************************************************************

-------------------------------------------------------------------------------
                              General Information
-------------------------------------------------------------------------------
Type.................: Movie
Name.................: Kick-Ass
Movie Information....: http://www.imdb.com/title/tt1250777/
Genre................: Action | Crime | Thriller

-------------------------------------------------------------------------------
                                    PLOT
-------------------------------------------------------------------------------
Dave Lizewski is an unnoticed high school student and comic book fan who one day 
decides to become a super-hero, even though he has no powers, training or meaningful 
reason to do so.

-------------------------------------------------------------------------------
                                    CAST
-------------------------------------------------------------------------------
Aaron Johnson	... 	Dave Lizewski / Kick-Ass
Garrett M. Brown	... 	Mr. Lizewski
Clark Duke	... 	Marty
Evan Peters	... 	Todd
Deborah Twiss	... 	Mrs. Zane
Lyndsy Fonseca	... 	Katie Deauxma
Sophie Wu	... 	Erika Cho
Elizabeth McGovern	... 	Mrs. Lizewski
Christopher Mintz-Plasse	... 	Chris D'Amico / Red Mist
Stu 'Large' Riley	... 	Huge Goon
Johnny Hopkins	... 	1st Gang Kid
Ohene Cornelius	... 	2nd Gang Kid
Mark Strong	... 	Frank D'Amico
Michael Rispoli	... 	Big Joe
Corey Johnson	... 	Sporty Goon

-------------------------------------------------------------------------------
                                    MEDiA iNFO
-------------------------------------------------------------------------------

General
Complete name                    : Kick-Ass.2010.DVDRip.AC3.X264-BARC0DE.mkv
Format                           : Matroska
File size                        : 1.45 GiB
Duration                         : 1h 52mn
Overall bit rate                 : 1 839 Kbps


Video
ID                               : 1
Format                           : AVC
Format/Info                      : Advanced Video Codec
Format profile                   : High@L3.0
Format settings, CABAC           : Yes
Format settings, ReFrames        : 3 frames
Muxing mode                      : Container profile=Unknown@3.0
Codec ID                         : V_MPEG4/ISO/AVC
Duration                         : 1h 52mn
Bit rate                         : 1 418 Kbps
Nominal bit rate                 : 1 465 Kbps
Width                            : 720 pixels
Height                           : 320 pixels
Display aspect ratio             : 2.25:1
Frame rate                       : 25.000 fps
Resolution                       : 8 bits
Colorimetry                      : 4:2:0
Scan type                        : Progressive
Bits/(Pixel*Frame)               : 0.246
Stream size                      : 1.12 GiB (77%)
Writing library                  : x264 core 79


Audio
ID                               : 2
Format                           : AC-3
Format/Info                      : Audio Coding 3
Format_Settings_ModeExtension    : CM (complete main)
Codec ID                         : A_AC3
Duration                         : 1h 52mn
Bit rate mode                    : Constant
Bit rate                         : 384 Kbps
Channel(s)                       : 6 channels
Channel positions                : Front: L C R, Side: L R, LFE
Sampling rate                    : 48.0 KHz
Stream size                      : 310 MiB (21%)
Language                         : English

Menu
00:00:00.000                     : Chapter 1
00:05:34.160                     : Chapter 2
00:11:31.320                     : Chapter 3
00:17:38.280                     : Chapter 4
00:24:34.800                     : Chapter 5
00:29:54.440                     : Chapter 6
00:36:54.280                     : Chapter 7
00:44:42.040                     : Chapter 8
00:51:34.880                     : Chapter 9
00:58:41.920                     : Chapter 10
01:04:45.800                     : Chapter 11
01:11:35.040                     : Chapter 12
01:19:03.360                     : Chapter 13
01:26:23.080                     : Chapter 14
01:34:53.000                     : Chapter 15
01:41:13.720                     : Chapter 16